<?xml version="1.0" standalone="no"?>
<!DOCTYPE svg PUBLIC "-//W3C//DTD SVG 20010904//EN"
 "http://www.w3.org/TR/2001/REC-SVG-20010904/DTD/svg10.dtd">
<svg version="1.0" xmlns="http://www.w3.org/2000/svg"
 width="1024.000000pt" height="1024.000000pt" viewBox="0 0 1024.000000 1024.000000"
 preserveAspectRatio="xMidYMid meet">
<metadata>
Created by potrace 1.11, written by Peter Selinger 2001-2013
</metadata>
<g transform="translate(0.000000,1024.000000) scale(0.100000,-0.100000)"
fill="#000000" stroke="none">
<path d="M8357 7814 c-1 -1 -60 -4 -132 -8 -71 -3 -148 -8 -170 -12 -114 -15
-238 -38 -305 -56 -41 -11 -79 -21 -85 -22 -185 -47 -436 -162 -599 -274 -398
-271 -640 -655 -704 -1117 -11 -72 -8 -393 3 -455 43 -243 107 -419 218 -595
37 -58 37 -57 112 -150 249 -303 659 -565 1310 -836 466 -194 661 -317 831
-526 99 -122 169 -325 167 -488 -3 -328 -224 -603 -582 -726 -130 -45 -346
-66 -478 -47 -32 4 -73 10 -92 13 -83 11 -195 50 -306 105 -270 134 -484 345
-743 732 -40 59 -72 110 -72 112 0 3 -15 29 -34 58 -54 85 -171 297 -263 475
-33 64 -41 73 -64 71 l-26 -2 0 -639 0 -638 76 -38 c169 -85 494 -195 695
-235 11 -3 46 -10 76 -16 30 -6 64 -13 75 -15 11 -1 49 -7 85 -13 89 -15 125
-20 195 -27 33 -4 74 -9 90 -11 176 -21 619 -21 733 1 9 1 40 6 67 9 643 85
1221 401 1530 837 97 136 203 365 229 495 3 11 9 41 15 68 7 26 15 74 19 105
9 72 9 370 0 441 -49 375 -216 685 -514 951 -89 79 -104 92 -191 152 -227 158
-519 302 -863 427 -323 116 -471 175 -591 235 -332 165 -485 328 -548 585 -17
70 -20 108 -17 215 6 211 52 326 205 508 28 32 154 124 221 160 68 38 145 68
220 87 72 19 90 22 179 24 532 14 1040 -485 1471 -1443 50 -111 59 -125 83
-128 24 -3 27 0 28 24 0 37 0 1190 0 1229 -1 29 -7 33 -138 97 -175 84 -384
163 -513 192 -8 1 -33 8 -55 13 -51 14 -182 40 -232 47 -21 3 -49 8 -63 10
-68 13 -149 22 -275 30 -86 6 -274 12 -278 9z"/>
<path d="M4 7661 c-2 -2 -4 -15 -4 -28 0 -23 2 -23 103 -24 129 -2 141 -3 213
-28 147 -52 246 -169 272 -321 6 -33 9 -901 8 -2180 -2 -2260 0 -2158 -48
-2255 -27 -53 -116 -139 -170 -164 -86 -39 -147 -48 -346 -51 -29 0 -33 -3
-30 -22 l3 -23 1478 0 1477 0 0 22 c0 13 -6 23 -12 23 -244 6 -284 13 -379 61
-84 42 -143 114 -180 220 l-23 64 -2 1007 c-1 818 1 1003 12 983 7 -13 63
-140 124 -282 62 -142 121 -276 131 -297 11 -22 19 -46 19 -53 0 -7 4 -13 9
-13 5 0 11 -10 14 -22 5 -26 247 -574 325 -741 130 -275 295 -499 490 -664
170 -144 362 -241 617 -309 6 -2 44 -9 85 -18 209 -41 343 -51 670 -50 228 0
361 6 485 20 60 7 127 15 155 19 14 2 48 7 75 10 66 9 327 62 391 80 44 13 52
19 52 39 0 23 -1 24 -52 10 -28 -8 -85 -17 -126 -20 -169 -14 -281 48 -481
266 -9 9 -39 48 -67 86 -29 38 -55 74 -60 79 -48 59 -275 424 -395 635 -102
181 -108 192 -140 250 -16 30 -69 127 -117 215 -48 88 -118 219 -155 290 -37
72 -76 144 -85 160 -10 17 -50 93 -90 170 -40 77 -81 156 -92 175 l-18 34 93
46 c464 228 797 695 843 1180 22 237 -23 513 -113 695 -29 58 -91 162 -113
189 -169 212 -387 357 -662 440 -173 52 -255 67 -498 92 -70 7 -3679 12 -3686
5z m2629 -72 c196 -53 344 -256 432 -594 13 -50 26 -109 29 -131 4 -22 8 -49
10 -59 42 -234 54 -781 22 -985 -3 -14 -10 -59 -16 -100 -17 -105 -45 -223
-73 -305 -92 -267 -249 -438 -414 -453 -110 -9 -199 35 -237 117 l-21 46 -1
1237 c-1 1124 1 1237 15 1240 34 7 215 -2 254 -13z"/>
</g>
</svg>
